 <svg version="1.0" xmlns="http://www.w3.org/2000/svg" width="700.000000pt" height="700.000000pt" viewBox="0 0 700.000000 700.000000" preserveAspectRatio="xMidYMid meet">
<metadata>
Created by potrace 1.12, written by Peter Selinger 2001-2015
</metadata>
<g transform="translate(0.000000,700.000000) scale(0.100000,-0.100000)" fill="#000000" stroke="none">
<path d="M1740 5115 c-7 -8 -17 -15 -23 -15 -6 0 -31 -19 -54 -42 -29 -29 -43
-51 -43 -69 0 -15 -6 -32 -14 -38 -11 -10 -14 -202 -15 -1209 -2 -1147 -1
-1199 17 -1250 33 -92 104 -148 193 -153 143 -8 1169 2 1169 11 0 6 -223 11
-614 12 l-614 3 -39 31 c-21 17 -48 51 -60 75 -21 41 -23 59 -24 248 -1 142 2
205 10 210 8 5 8 16 1 37 -7 19 -9 338 -8 934 3 894 3 904 21 845 22 -70 42
-105 61 -105 20 0 46 44 56 93 4 24 8 -324 9 -799 1 -831 1 -840 21 -862 12
-12 31 -22 43 -22 16 0 18 -3 8 -9 -7 -5 -9 -11 -5 -13 32 -19 384 -32 511
-19 43 4 164 4 268 0 105 -4 224 -9 266 -10 50 -1 90 -8 115 -20 51 -24 239
-27 247 -4 5 12 90 14 611 15 553 0 606 -2 621 -17 15 -15 25 -15 84 -5 95 18
141 19 181 5 47 -16 490 -18 490 -2 0 6 8 2 18 -10 14 -18 22 -19 55 -12 32 8
39 6 48 -10 5 -10 19 -19 29 -19 19 0 20 8 20 155 0 97 -4 155 -10 155 -5 0
-10 7 -10 15 0 8 5 15 10 15 13 0 13 1485 0 1630 -8 90 -13 109 -38 143 -16
22 -51 52 -78 68 l-49 28 -1736 1 c-1532 0 -1738 -2 -1749 -15z m527 -152
c-20 -2 -52 -2 -70 0 -17 2 0 4 38 4 39 0 53 -2 32 -4z m2341 0 c-64 -2 -172
-2 -240 0 -68 1 -15 3 117 3 132 0 187 -2 123 -3z m-2798 -6 c0 -2 -10 -12
-21 -23 -22 -19 -22 -19 -10 4 10 18 31 31 31 19z m3385 -7 c-3 -5 7 -22 22
-36 18 -18 24 -28 16 -31 -17 -6 -19 -1773 -3 -1773 15 0 12 -26 -2 -28 -49
-5 -3416 -4 -3424 1 -15 8 -16 1827 -2 1844 9 11 334 13 1687 13 1127 0 1677
3 1679 10 2 5 10 10 18 10 9 0 12 -4 9 -10z m-3428 -72 c-3 -7 -5 -2 -5 12 0
14 2 19 5 13 2 -7 2 -19 0 -25z m3600 -1420 c-1 -101 -2 -19 -2 182 0 201 1
283 2 183 2 -101 2 -265 0 -365z m0 -360 c-2 -24 -4 -7 -4 37 0 44 2 63 4 43
2 -21 2 -57 0 -80z"></path>
<path d="M5377 2543 c-2 -5 -10 -25 -17 -46 -14 -45 -61 -102 -101 -123 -24
-12 -123 -14 -624 -14 -390 0 -595 -3 -595 -10 0 -5 6 -10 13 -10 6 0 275 -1
597 -2 563 -2 586 -1 622 17 49 27 104 100 113 153 6 38 3 54 -8 35z"></path>
<path d="M3032 2388 c-5 -7 -12 -38 -15 -68 -3 -30 -10 -77 -16 -105 -31 -153
-53 -347 -39 -356 5 -3 2 -11 -6 -18 -11 -9 -41 -12 -98 -10 l-83 4 0 -30 0
-30 715 0 715 0 0 30 0 30 -75 -3 c-60 -3 -79 -1 -89 12 -8 9 -9 16 -3 16 13
0 6 101 -14 192 -8 37 -14 88 -14 113 0 26 -7 61 -15 78 -8 18 -16 59 -17 92
l-3 60 -466 3 c-366 2 -469 -1 -477 -10z m482 -116 c289 2 407 6 422 15 20 12
21 9 32 -55 42 -248 54 -342 49 -356 -6 -16 -47 -17 -516 -15 -448 2 -511 4
-516 17 -6 16 -2 56 20 187 7 44 19 114 25 156 l12 77 35 -15 c29 -12 102 -14
437 -11z"></path>
</g>
</svg>